# xmcd CD database file
#
# Track frame offsets:
#	187
#	18295
#	34635
#	53235
#	70987
#	87960
#	105155
#	120677
#	137892
#	155010
#
# Disc length: 2254 seconds
#
# Revision: 1
# Processed by: cddbd v1.5.2PL0 Copyright (c) Steve Scherf et al.
# Submitted via: CDex 1.70beta3
#
DISCID=7d08cc0a
DTITLE=Tim Hardin Trio - ＪＡＺＺで聴く杏里作品集
DYEAR=1990
DGENRE=Jazz
TTITLE0=CIRCUIT of RAINBOW
TTITLE1=OVER CALL
TTITLE2=Groove A・GO・GO
TTITLE3=AFFECTION
TTITLE4=SUMMER CANDLES
TTITLE5=最後のサーフホリデー
TTITLE6=P.S.言葉にならない
TTITLE7=ALL OF YOU
TTITLE8=EDGE OF HEAVEN
TTITLE9=スノーフレイクの街角
EXTD=YEAR: 1990
EXTT0=
EXTT1=
EXTT2=
EXTT3=
EXTT4=
EXTT5=
EXTT6=
EXTT7=
EXTT8=
EXTT9=
PLAYORDER=
